<svg width="100" height="22" viewBox="0 0 100 22" fill="none" xmlns="http://www.w3.org/2000/svg">
<rect x="94.1602" width="5.28" height="5.28" fill="#AE7AFF"/>
<rect x="90.6401" y="3.51999" width="5.28001" height="5.28" fill="#E99898"/>
<g opacity="0.377858" filter="url(#filter0_b_0_1292)">
<rect x="94.1602" y="3.51999" width="1.76" height="1.76" fill="#0F0F0F"/>
</g>
<path fill-rule="evenodd" clip-rule="evenodd" d="M8.56074 13.5802C9.34922 13.721 10.018 14.1363 10.5671 14.8263C11.1163 15.5162 11.3908 16.2976 11.3908 17.1706C11.3908 17.9168 11.1972 18.5891 10.81 19.1875C10.4228 19.7859 9.86314 20.2576 9.13098 20.6026C8.39882 20.9475 7.54698 21.12 6.57546 21.12H0.704102V6.44162H6.3009C7.30058 6.44162 8.15946 6.61058 8.87754 6.9485C9.59562 7.28642 10.1377 7.7405 10.5038 8.31074C10.8699 8.88098 11.0529 9.5181 11.0529 10.2221C11.0529 11.0669 10.8276 11.7709 10.3771 12.3341C9.9265 12.8973 9.32106 13.3127 8.56074 13.5802ZM3.11178 12.6087H6.0897C6.87818 12.6087 7.49418 12.4291 7.9377 12.0701C8.38122 11.7111 8.60298 11.1936 8.60298 10.5178C8.60298 9.85602 8.38122 9.33858 7.9377 8.96546C7.49418 8.59234 6.87818 8.40578 6.0897 8.40578H3.11178V12.6087ZM8.28618 18.5645C7.82154 18.9587 7.1809 19.1559 6.36426 19.1559H3.11178V14.5728H6.27978C7.09642 14.5728 7.75114 14.784 8.24394 15.2064C8.73674 15.6288 8.98314 16.1991 8.98314 16.9171C8.98314 17.6211 8.75082 18.1703 8.28618 18.5645Z" fill="white"/>
<path d="M10.5671 14.8263L10.2542 15.0754V15.0754L10.5671 14.8263ZM8.56074 13.5802L8.42798 13.2029C8.2566 13.2632 8.14738 13.4314 8.16205 13.6125C8.17671 13.7936 8.31158 13.942 8.49043 13.974L8.56074 13.5802ZM9.13098 20.6026L9.30147 20.9644L9.13098 20.6026ZM0.704102 21.12H0.304102C0.304102 21.3409 0.483188 21.52 0.704102 21.52L0.704102 21.12ZM0.704102 6.44162V6.04162C0.483188 6.04162 0.304102 6.22071 0.304102 6.44162H0.704102ZM8.87754 6.9485L9.04786 6.58657L9.04786 6.58657L8.87754 6.9485ZM10.5038 8.31074L10.8404 8.09465V8.09465L10.5038 8.31074ZM10.3771 12.3341L10.6894 12.584H10.6894L10.3771 12.3341ZM3.11178 12.6087H2.71178C2.71178 12.8296 2.89087 13.0087 3.11178 13.0087V12.6087ZM7.9377 12.0701L7.68602 11.7592L7.9377 12.0701ZM3.11178 8.40578V8.00578C2.89087 8.00578 2.71178 8.18487 2.71178 8.40578H3.11178ZM8.28618 18.5645L8.54497 18.8695L8.54497 18.8695L8.28618 18.5645ZM3.11178 19.1559H2.71178C2.71178 19.3768 2.89087 19.5559 3.11178 19.5559V19.1559ZM3.11178 14.5728V14.1728C2.89087 14.1728 2.71178 14.3519 2.71178 14.5728H3.11178ZM8.24394 15.2064L7.98362 15.5101L8.24394 15.2064ZM10.8801 14.5772C10.277 13.8194 9.52525 13.3461 8.63106 13.1864L8.49043 13.974C9.17319 14.0959 9.75906 14.4533 10.2542 15.0754L10.8801 14.5772ZM11.7908 17.1706C11.7908 16.2061 11.485 15.3371 10.8801 14.5772L10.2542 15.0754C10.7476 15.6953 10.9908 16.3891 10.9908 17.1706H11.7908ZM11.1458 19.4048C11.577 18.7386 11.7908 17.9901 11.7908 17.1706H10.9908C10.9908 17.8435 10.8175 18.4397 10.4742 18.9702L11.1458 19.4048ZM9.30147 20.9644C10.0918 20.5921 10.7128 20.0741 11.1458 19.4048L10.4742 18.9702C10.1328 19.4978 9.63451 19.9232 8.96049 20.2407L9.30147 20.9644ZM6.57546 21.52C7.59429 21.52 8.50637 21.339 9.30147 20.9644L8.9605 20.2407C8.29127 20.556 7.49968 20.72 6.57546 20.72V21.52ZM0.704102 21.52H6.57546V20.72H0.704102V21.52ZM0.304102 6.44162V21.12H1.1041V6.44162H0.304102ZM6.3009 6.04162H0.704102V6.84162H6.3009V6.04162ZM9.04786 6.58657C8.26453 6.21795 7.34463 6.04162 6.3009 6.04162V6.84162C7.25654 6.84162 8.05439 7.00321 8.70722 7.31043L9.04786 6.58657ZM10.8404 8.09465C10.4272 7.45096 9.82214 6.95094 9.04786 6.58657L8.70722 7.31043C9.3691 7.6219 9.84825 8.03004 10.1672 8.52683L10.8404 8.09465ZM11.4529 10.2221C11.4529 9.44463 11.2495 8.73195 10.8404 8.09465L10.1672 8.52683C10.4902 9.03001 10.6529 9.59157 10.6529 10.2221H11.4529ZM10.6894 12.584C11.2061 11.9381 11.4529 11.1415 11.4529 10.2221H10.6529C10.6529 10.9923 10.4492 11.6037 10.0647 12.0842L10.6894 12.584ZM8.6935 13.9575C9.51589 13.6681 10.1867 13.2123 10.6894 12.584L10.0647 12.0842C9.66627 12.5823 9.12624 12.9572 8.42798 13.2029L8.6935 13.9575ZM6.0897 12.2087H3.11178V13.0087H6.0897V12.2087ZM7.68602 11.7592C7.33663 12.042 6.82118 12.2087 6.0897 12.2087V13.0087C6.93518 13.0087 7.65173 12.8162 8.18938 12.381L7.68602 11.7592ZM8.20298 10.5178C8.20298 11.0977 8.01803 11.4904 7.68602 11.7592L8.18938 12.381C8.74442 11.9317 9.00298 11.2895 9.00298 10.5178H8.20298ZM7.6802 9.27155C8.01997 9.55739 8.20298 9.95536 8.20298 10.5178H9.00298C9.00298 9.75668 8.74248 9.11977 8.19521 8.65937L7.6802 9.27155ZM6.0897 8.80578C6.81794 8.80578 7.33108 8.97785 7.6802 9.27155L8.19521 8.65937C7.65728 8.20683 6.93843 8.00578 6.0897 8.00578V8.80578ZM3.11178 8.80578H6.0897V8.00578H3.11178V8.80578ZM3.51178 12.6087V8.40578H2.71178V12.6087H3.51178ZM6.36426 19.5559C7.24323 19.5559 7.98664 19.3432 8.54497 18.8695L8.02739 18.2595C7.65644 18.5742 7.11858 18.7559 6.36426 18.7559V19.5559ZM3.11178 19.5559H6.36426V18.7559H3.11178V19.5559ZM2.71178 14.5728V19.1559H3.51178V14.5728H2.71178ZM6.27978 14.1728H3.11178V14.9728H6.27978V14.1728ZM8.50426 14.9027C7.92176 14.4034 7.1665 14.1728 6.27978 14.1728V14.9728C7.02634 14.9728 7.58052 15.1646 7.98362 15.5101L8.50426 14.9027ZM9.38314 16.9171C9.38314 16.0963 9.0958 15.4098 8.50426 14.9027L7.98362 15.5101C8.37768 15.8479 8.58314 16.3019 8.58314 16.9171H9.38314ZM8.54497 18.8695C9.11359 18.387 9.38314 17.7183 9.38314 16.9171H8.58314C8.58314 17.524 8.38805 17.9535 8.02739 18.2595L8.54497 18.8695Z" fill="white"/>
<path d="M17.2597 11.1725C17.6117 10.5811 18.0799 10.12 18.6642 9.78914C19.2485 9.45826 19.942 9.29282 20.7445 9.29282V11.785H20.1321C19.1887 11.785 18.4741 12.0243 17.9884 12.5031C17.5026 12.9818 17.2597 13.8125 17.2597 14.9952V21.12H14.8521V9.4829H17.2597V11.1725Z" fill="white" stroke="white" stroke-width="0.8" stroke-linejoin="round"/>
<path d="M34.3432 9.48288V21.12H31.9355V19.7472C31.5554 20.2259 31.0591 20.6026 30.4466 20.8771C29.8341 21.1517 29.1829 21.289 28.493 21.289C27.5778 21.289 26.7576 21.0989 26.0325 20.7187C25.3074 20.3386 24.7371 19.7754 24.3218 19.0291C23.9064 18.2829 23.6987 17.3818 23.6987 16.3258V9.48288H26.0853V15.9667C26.0853 17.0086 26.3458 17.8077 26.8667 18.3638C27.3877 18.92 28.0987 19.1981 28.9999 19.1981C29.901 19.1981 30.6155 18.92 31.1435 18.3638C31.6715 17.8077 31.9355 17.0086 31.9355 15.9667V9.48288H34.3432Z" fill="white" stroke="white" stroke-width="0.8" stroke-linejoin="round"/>
<path fill-rule="evenodd" clip-rule="evenodd" d="M38.2794 12.144C37.7937 13.0451 37.5508 14.08 37.5508 15.2487C37.5508 16.4173 37.7937 17.4627 38.2794 18.385C38.7652 19.3072 39.4269 20.0253 40.2647 20.5392C41.1025 21.0531 42.0282 21.3101 43.042 21.3101C43.9431 21.3101 44.7421 21.1271 45.4391 20.761C46.1361 20.3949 46.6817 19.9303 47.0759 19.3671V21.12H49.5047V5.49121H47.0759V11.1091C46.6394 10.56 46.0516 10.12 45.3124 9.78913C44.5732 9.45825 43.8234 9.29281 43.0631 9.29281C42.0353 9.29281 41.1025 9.54273 40.2647 10.0426C39.4269 10.5424 38.7652 11.2429 38.2794 12.144ZM46.5796 13.2C46.9105 13.7914 47.0759 14.4883 47.0759 15.2909C47.0759 16.0935 46.9105 16.7939 46.5796 17.3923C46.2487 17.9907 45.8157 18.4448 45.2807 18.7546C44.7457 19.0643 44.1684 19.2192 43.5489 19.2192C42.9434 19.2192 42.3697 19.0608 41.8276 18.744C41.2855 18.4272 40.849 17.9661 40.5181 17.3607C40.1873 16.7552 40.0218 16.0512 40.0218 15.2487C40.0218 14.4461 40.1873 13.7527 40.5181 13.1683C40.849 12.584 41.282 12.1405 41.817 11.8378C42.3521 11.5351 42.9293 11.3837 43.5489 11.3837C44.1684 11.3837 44.7457 11.5386 45.2807 11.8483C45.8157 12.1581 46.2487 12.6087 46.5796 13.2Z" fill="white"/>
<path d="M38.2794 18.385L37.9255 18.5714L37.9255 18.5714L38.2794 18.385ZM45.4391 20.761L45.6251 21.1151L45.6251 21.1151L45.4391 20.761ZM47.0759 19.3671H47.4759C47.4759 19.1925 47.3627 19.038 47.1962 18.9856C47.0296 18.9331 46.8483 18.9946 46.7482 19.1377L47.0759 19.3671ZM47.0759 21.12H46.6759C46.6759 21.3409 46.855 21.52 47.0759 21.52V21.12ZM49.5047 21.12V21.52C49.7256 21.52 49.9047 21.3409 49.9047 21.12H49.5047ZM49.5047 5.49121H49.9047C49.9047 5.2703 49.7256 5.09121 49.5047 5.09121V5.49121ZM47.0759 5.49121V5.09121C46.855 5.09121 46.6759 5.2703 46.6759 5.49121H47.0759ZM47.0759 11.1091L46.7628 11.358C46.8686 11.4912 47.0471 11.5428 47.2077 11.4868C47.3683 11.4307 47.4759 11.2792 47.4759 11.1091H47.0759ZM45.3124 9.78913L45.4758 9.42404H45.4758L45.3124 9.78913ZM40.2647 10.0426L40.4697 10.3861L40.2647 10.0426ZM46.5796 13.2L46.2305 13.3953V13.3953L46.5796 13.2ZM46.5796 17.3923L46.2295 17.1988L46.5796 17.3923ZM45.2807 18.7546L45.4811 19.1007L45.2807 18.7546ZM41.8276 18.744L42.0294 18.3987L41.8276 18.744ZM41.817 11.8378L41.62 11.4896L41.817 11.8378ZM45.2807 11.8483L45.4811 11.5022L45.2807 11.8483ZM37.9508 15.2487C37.9508 14.1368 38.1814 13.1688 38.6315 12.3338L37.9273 11.9542C37.4059 12.9215 37.1508 14.0232 37.1508 15.2487H37.9508ZM38.6333 18.1986C38.1814 17.3405 37.9508 16.3603 37.9508 15.2487H37.1508C37.1508 16.4743 37.406 17.585 37.9255 18.5714L38.6333 18.1986ZM40.4739 20.1983C39.7011 19.7242 39.0877 19.0612 38.6333 18.1986L37.9255 18.5714C38.4427 19.5532 39.1528 20.3264 40.0555 20.8802L40.4739 20.1983ZM43.042 20.9101C42.0996 20.9101 41.2466 20.6723 40.4739 20.1983L40.0555 20.8802C40.9583 21.434 41.9568 21.7101 43.042 21.7101V20.9101ZM45.2531 20.4068C44.6213 20.7387 43.8877 20.9101 43.042 20.9101V21.7101C43.9985 21.7101 44.863 21.5154 45.6251 21.1151L45.2531 20.4068ZM46.7482 19.1377C46.3956 19.6414 45.9018 20.0661 45.2531 20.4068L45.6251 21.1151C46.3703 20.7237 46.9678 20.2191 47.4036 19.5964L46.7482 19.1377ZM47.4759 21.12V19.3671H46.6759V21.12H47.4759ZM49.5047 20.72H47.0759V21.52H49.5047V20.72ZM49.1047 5.49121V21.12H49.9047V5.49121H49.1047ZM47.0759 5.89121H49.5047V5.09121H47.0759V5.89121ZM47.4759 11.1091V5.49121H46.6759V11.1091H47.4759ZM45.149 10.1542C45.8387 10.463 46.3719 10.8663 46.7628 11.358L47.389 10.8602C46.9069 10.2537 46.2644 9.77704 45.4758 9.42404L45.149 10.1542ZM43.0631 9.69281C43.7635 9.69281 44.4578 9.84483 45.149 10.1542L45.4758 9.42404C44.6886 9.07167 43.8834 8.89281 43.0631 8.89281V9.69281ZM40.4697 10.3861C41.2421 9.92522 42.1034 9.69281 43.0631 9.69281V8.89281C41.9671 8.89281 40.9629 9.16024 40.0598 9.69907L40.4697 10.3861ZM38.6315 12.3338C39.0848 11.493 39.697 10.847 40.4697 10.3861L40.0598 9.69907C39.1568 10.2378 38.4456 10.9928 37.9273 11.9542L38.6315 12.3338ZM47.4759 15.2909C47.4759 14.4326 47.2986 13.6659 46.9287 13.0047L46.2305 13.3953C46.5223 13.9169 46.6759 14.5441 46.6759 15.2909H47.4759ZM46.9296 17.5859C47.2986 16.9187 47.4759 16.1493 47.4759 15.2909H46.6759C46.6759 16.0376 46.5224 16.6692 46.2295 17.1988L46.9296 17.5859ZM45.4811 19.1007C46.0855 18.7509 46.5675 18.2409 46.9296 17.5859L46.2295 17.1988C45.9299 17.7406 45.546 18.1388 45.0803 18.4084L45.4811 19.1007ZM43.5489 19.6192C44.2386 19.6192 44.885 19.4458 45.4811 19.1007L45.0803 18.4084C44.6063 18.6828 44.0982 18.8192 43.5489 18.8192V19.6192ZM41.6258 19.0894C42.2267 19.4406 42.8698 19.6192 43.5489 19.6192V18.8192C43.017 18.8192 42.5126 18.6811 42.0294 18.3987L41.6258 19.0894ZM40.1671 17.5525C40.5293 18.2152 41.0148 18.7323 41.6258 19.0894L42.0294 18.3987C41.5562 18.1221 41.1687 17.717 40.8691 17.1688L40.1671 17.5525ZM39.6218 15.2487C39.6218 16.1072 39.7992 16.8793 40.1671 17.5525L40.8691 17.1688C40.5753 16.6312 40.4218 15.9952 40.4218 15.2487H39.6218ZM40.1701 12.9712C39.7991 13.6264 39.6218 14.3905 39.6218 15.2487H40.4218C40.4218 14.5017 40.5755 13.8789 40.8662 13.3654L40.1701 12.9712ZM41.62 11.4896C41.0161 11.8313 40.5333 12.3298 40.1701 12.9712L40.8662 13.3654C41.1648 12.8382 41.5478 12.4497 42.014 12.1859L41.62 11.4896ZM43.5489 10.9837C42.8609 10.9837 42.2157 11.1526 41.62 11.4896L42.014 12.1859C42.4885 11.9175 42.9978 11.7837 43.5489 11.7837V10.9837ZM45.4811 11.5022C44.885 11.1571 44.2386 10.9837 43.5489 10.9837V11.7837C44.0982 11.7837 44.6063 11.9201 45.0803 12.1945L45.4811 11.5022ZM46.9287 13.0047C46.5662 12.3568 46.0842 11.8513 45.4811 11.5022L45.0803 12.1945C45.5472 12.4648 45.9313 12.8605 46.2305 13.3953L46.9287 13.0047Z" fill="white"/>
<path fill-rule="evenodd" clip-rule="evenodd" d="M53.441 12.144C52.9553 13.0451 52.7124 14.08 52.7124 15.2487C52.7124 16.4173 52.9553 17.4627 53.441 18.385C53.9268 19.3072 54.5886 20.0253 55.4263 20.5392C56.2641 21.0531 57.1898 21.3101 58.2036 21.3101C59.1047 21.3101 59.9038 21.1271 60.6007 20.761C61.2977 20.3949 61.8433 19.9303 62.2375 19.3671V21.12H64.6663V5.49121H62.2375V11.1091C61.801 10.56 61.2132 10.12 60.474 9.78913C59.7348 9.45825 58.985 9.29281 58.2247 9.29281C57.1969 9.29281 56.2641 9.54273 55.4263 10.0426C54.5886 10.5424 53.9268 11.2429 53.441 12.144ZM61.7412 13.2C62.0721 13.7914 62.2375 14.4883 62.2375 15.2909C62.2375 16.0935 62.0721 16.7939 61.7412 17.3923C61.4103 17.9907 60.9774 18.4448 60.4423 18.7546C59.9073 19.0643 59.33 19.2192 58.7105 19.2192C58.105 19.2192 57.5313 19.0608 56.9892 18.744C56.4471 18.4272 56.0106 17.9661 55.6798 17.3607C55.3489 16.7552 55.1834 16.0512 55.1834 15.2487C55.1834 14.4461 55.3489 13.7527 55.6798 13.1683C56.0106 12.584 56.4436 12.1405 56.9786 11.8378C57.5137 11.5351 58.091 11.3837 58.7105 11.3837C59.33 11.3837 59.9073 11.5386 60.4423 11.8483C60.9774 12.1581 61.4103 12.6087 61.7412 13.2Z" fill="white"/>
<path d="M53.441 18.385L53.0871 18.5714H53.0871L53.441 18.385ZM55.4263 20.5392L55.6355 20.1983L55.4263 20.5392ZM60.6007 20.761L60.7867 21.1151L60.7867 21.1151L60.6007 20.761ZM62.2375 19.3671H62.6375C62.6375 19.1925 62.5243 19.038 62.3578 18.9856C62.1913 18.9331 62.0099 18.9946 61.9098 19.1377L62.2375 19.3671ZM62.2375 21.12H61.8375C61.8375 21.3409 62.0166 21.52 62.2375 21.52V21.12ZM64.6663 21.12V21.52C64.8872 21.52 65.0663 21.3409 65.0663 21.12H64.6663ZM64.6663 5.49121H65.0663C65.0663 5.2703 64.8872 5.09121 64.6663 5.09121V5.49121ZM62.2375 5.49121V5.09121C62.0166 5.09121 61.8375 5.2703 61.8375 5.49121H62.2375ZM62.2375 11.1091L61.9244 11.358C62.0302 11.4912 62.2087 11.5428 62.3693 11.4868C62.5299 11.4307 62.6375 11.2792 62.6375 11.1091H62.2375ZM60.474 9.78913L60.6374 9.42404L60.474 9.78913ZM55.4263 10.0426L55.6313 10.3861H55.6313L55.4263 10.0426ZM61.7412 13.2L61.3921 13.3953L61.7412 13.2ZM61.7412 17.3923L61.3912 17.1988L61.7412 17.3923ZM60.4423 18.7546L60.2419 18.4084L60.4423 18.7546ZM56.9892 18.744L57.191 18.3987L56.9892 18.744ZM55.6798 17.3607L56.0308 17.1688L55.6798 17.3607ZM55.6798 13.1683L56.0278 13.3654H56.0278L55.6798 13.1683ZM56.9786 11.8378L56.7817 11.4896L56.9786 11.8378ZM60.4423 11.8483L60.2419 12.1945L60.4423 11.8483ZM53.1124 15.2487C53.1124 14.1368 53.343 13.1688 53.7931 12.3338L53.0889 11.9542C52.5675 12.9215 52.3124 14.0232 52.3124 15.2487H53.1124ZM53.795 18.1986C53.343 17.3405 53.1124 16.3603 53.1124 15.2487H52.3124C52.3124 16.4743 52.5676 17.585 53.0871 18.5714L53.795 18.1986ZM55.6355 20.1983C54.8627 19.7242 54.2493 19.0612 53.795 18.1986L53.0871 18.5714C53.6043 19.5532 54.3144 20.3264 55.2172 20.8802L55.6355 20.1983ZM58.2036 20.9101C57.2612 20.9101 56.4083 20.6723 55.6355 20.1983L55.2172 20.8802C56.1199 21.434 57.1184 21.7101 58.2036 21.7101V20.9101ZM60.4147 20.4068C59.7829 20.7387 59.0494 20.9101 58.2036 20.9101V21.7101C59.1601 21.7101 60.0246 21.5154 60.7867 21.1151L60.4147 20.4068ZM61.9098 19.1377C61.5572 19.6414 61.0634 20.0661 60.4147 20.4068L60.7867 21.1151C61.5319 20.7237 62.1294 20.2191 62.5652 19.5964L61.9098 19.1377ZM62.6375 21.12V19.3671H61.8375V21.12H62.6375ZM64.6663 20.72H62.2375V21.52H64.6663V20.72ZM64.2663 5.49121V21.12H65.0663V5.49121H64.2663ZM62.2375 5.89121H64.6663V5.09121H62.2375V5.89121ZM62.6375 11.1091V5.49121H61.8375V11.1091H62.6375ZM60.3106 10.1542C61.0004 10.463 61.5335 10.8663 61.9244 11.358L62.5506 10.8602C62.0685 10.2537 61.426 9.77704 60.6374 9.42404L60.3106 10.1542ZM58.2247 9.69281C58.9251 9.69281 59.6194 9.84483 60.3106 10.1542L60.6374 9.42404C59.8502 9.07167 59.045 8.89281 58.2247 8.89281V9.69281ZM55.6313 10.3861C56.4037 9.92522 57.265 9.69281 58.2247 9.69281V8.89281C57.1288 8.89281 56.1245 9.16024 55.2214 9.69907L55.6313 10.3861ZM53.7931 12.3338C54.2464 11.493 54.8587 10.847 55.6313 10.3861L55.2214 9.69907C54.3185 10.2378 53.6072 10.9928 53.0889 11.9542L53.7931 12.3338ZM62.6375 15.2909C62.6375 14.4326 62.4602 13.6659 62.0903 13.0047L61.3921 13.3953C61.6839 13.9169 61.8375 14.5441 61.8375 15.2909H62.6375ZM62.0913 17.5859C62.4602 16.9187 62.6375 16.1493 62.6375 15.2909H61.8375C61.8375 16.0376 61.684 16.6692 61.3912 17.1988L62.0913 17.5859ZM60.6427 19.1007C61.2471 18.7509 61.7291 18.2409 62.0913 17.5859L61.3912 17.1988C61.0916 17.7406 60.7076 18.1388 60.2419 18.4084L60.6427 19.1007ZM58.7105 19.6192C59.4002 19.6192 60.0467 19.4458 60.6427 19.1007L60.2419 18.4084C59.7679 18.6828 59.2598 18.8192 58.7105 18.8192V19.6192ZM56.7874 19.0894C57.3883 19.4406 58.0314 19.6192 58.7105 19.6192V18.8192C58.1787 18.8192 57.6742 18.6811 57.191 18.3987L56.7874 19.0894ZM55.3288 17.5525C55.6909 18.2152 56.1764 18.7323 56.7874 19.0894L57.191 18.3987C56.7178 18.1221 56.3303 17.717 56.0308 17.1688L55.3288 17.5525ZM54.7834 15.2487C54.7834 16.1072 54.9608 16.8793 55.3288 17.5525L56.0308 17.1688C55.7369 16.6312 55.5834 15.9952 55.5834 15.2487H54.7834ZM55.3317 12.9712C54.9607 13.6264 54.7834 14.3905 54.7834 15.2487H55.5834C55.5834 14.5017 55.7371 13.8789 56.0278 13.3654L55.3317 12.9712ZM56.7817 11.4896C56.1777 11.8313 55.6949 12.3298 55.3317 12.9712L56.0278 13.3654C56.3264 12.8382 56.7095 12.4497 57.1756 12.1859L56.7817 11.4896ZM58.7105 10.9837C58.0225 10.9837 57.3773 11.1526 56.7817 11.4896L57.1756 12.1859C57.6501 11.9175 58.1594 11.7837 58.7105 11.7837V10.9837ZM60.6427 11.5022C60.0467 11.1571 59.4002 10.9837 58.7105 10.9837V11.7837C59.2598 11.7837 59.7679 11.9201 60.2419 12.1945L60.6427 11.5022ZM62.0903 13.0047C61.7278 12.3568 61.2459 11.8513 60.6427 11.5022L60.2419 12.1945C60.7089 12.4648 61.0929 12.8605 61.3921 13.3953L62.0903 13.0047Z" fill="white"/>
<path d="M71.0844 5.49121V21.12H68.6768V5.49121H71.0844Z" fill="white" stroke="white" stroke-width="0.8" stroke-linejoin="round"/>
<path fill-rule="evenodd" clip-rule="evenodd" d="M85.6757 16.1991C85.732 15.8471 85.7602 15.4528 85.7602 15.0163C85.7602 13.8899 85.5208 12.8938 85.0421 12.0279C84.5634 11.1619 83.8946 10.4896 83.0357 10.0109C82.1768 9.53218 81.1982 9.29282 80.1 9.29282C78.9595 9.29282 77.9493 9.53922 77.0693 10.032C76.1893 10.5248 75.5064 11.2253 75.0206 12.1335C74.5349 13.0416 74.292 14.0941 74.292 15.2909C74.292 16.4877 74.5419 17.5402 75.0418 18.4483C75.5416 19.3565 76.2315 20.0605 77.1115 20.5603C77.9915 21.0602 78.9877 21.3101 80.1 21.3101C81.4658 21.3101 82.6098 20.9687 83.532 20.2858C84.4542 19.6029 85.0914 18.7264 85.4434 17.6563H82.8456C82.3106 18.7405 81.3954 19.2826 80.1 19.2826C79.1989 19.2826 78.4386 19.001 77.819 18.4378C77.1995 17.8746 76.8546 17.1283 76.7842 16.1991H85.6757ZM82.2965 12.1229C82.916 12.6579 83.2328 13.369 83.2469 14.256H76.8053C76.9179 13.3549 77.2699 12.6403 77.8613 12.1123C78.4526 11.5843 79.1637 11.3203 79.9944 11.3203C80.9096 11.3203 81.677 11.5879 82.2965 12.1229Z" fill="white"/>
<path d="M85.6757 16.1991V16.5991C85.8722 16.5991 86.0396 16.4563 86.0707 16.2623L85.6757 16.1991ZM85.0421 12.0279L85.3921 11.8343V11.8343L85.0421 12.0279ZM83.0357 10.0109L83.2304 9.6615L83.0357 10.0109ZM77.0693 10.032L76.8738 9.68301V9.68301L77.0693 10.032ZM75.0206 12.1335L75.3733 12.3221V12.3221L75.0206 12.1335ZM75.0418 18.4483L75.3922 18.2555L75.0418 18.4483ZM77.1115 20.5603L76.914 20.9081L76.914 20.9081L77.1115 20.5603ZM83.532 20.2858L83.294 19.9643V19.9643L83.532 20.2858ZM85.4434 17.6563L85.8233 17.7813C85.8634 17.6595 85.8426 17.5257 85.7674 17.4218C85.6922 17.3179 85.5717 17.2563 85.4434 17.2563V17.6563ZM82.8456 17.6563V17.2563C82.6933 17.2563 82.5543 17.3428 82.4869 17.4793L82.8456 17.6563ZM76.7842 16.1991V15.7991C76.6728 15.7991 76.5665 15.8455 76.4908 15.9271C76.4151 16.0088 76.3769 16.1183 76.3853 16.2293L76.7842 16.1991ZM83.2469 14.256V14.656C83.3541 14.656 83.4568 14.613 83.5319 14.5366C83.6071 14.4602 83.6485 14.3568 83.6468 14.2497L83.2469 14.256ZM76.8053 14.256L76.4084 14.2064C76.3941 14.3202 76.4295 14.4347 76.5054 14.5207C76.5813 14.6067 76.6905 14.656 76.8053 14.656V14.256ZM77.8613 12.1123L78.1277 12.4107L77.8613 12.1123ZM85.3602 15.0163C85.3602 15.4362 85.333 15.8088 85.2807 16.1359L86.0707 16.2623C86.131 15.8853 86.1602 15.4695 86.1602 15.0163H85.3602ZM84.692 12.2214C85.1337 13.0203 85.3602 13.9481 85.3602 15.0163H86.1602C86.1602 13.8317 85.9079 12.7673 85.3921 11.8343L84.692 12.2214ZM82.8409 10.3603C83.6341 10.8024 84.2492 11.4205 84.692 12.2214L85.3921 11.8343C84.8775 10.9034 84.1551 10.1769 83.2304 9.6615L82.8409 10.3603ZM80.1 9.69282C81.1382 9.69282 82.0483 9.9185 82.8409 10.3603L83.2304 9.6615C82.3053 9.14585 81.2583 8.89282 80.1 8.89282V9.69282ZM77.2647 10.381C78.0775 9.92584 79.0189 9.69282 80.1 9.69282V8.89282C78.9002 8.89282 77.821 9.1526 76.8738 9.68301L77.2647 10.381ZM75.3733 12.3221C75.8239 11.4798 76.4529 10.8357 77.2647 10.381L76.8738 9.68301C75.9257 10.214 75.1889 10.9708 74.6679 11.9448L75.3733 12.3221ZM74.692 15.2909C74.692 14.1492 74.9233 13.1635 75.3733 12.3221L74.6679 11.9448C74.1464 12.9198 73.892 14.039 73.892 15.2909H74.692ZM75.3922 18.2555C74.9296 17.415 74.692 16.4308 74.692 15.2909H73.892C73.892 16.5446 74.1542 17.6654 74.6913 18.6412L75.3922 18.2555ZM77.3091 20.2125C76.495 19.7501 75.8573 19.1005 75.3922 18.2555L74.6913 18.6412C75.2259 19.6125 75.968 20.3709 76.914 20.9081L77.3091 20.2125ZM80.1 20.9101C79.0499 20.9101 78.123 20.6748 77.3091 20.2125L76.914 20.9081C77.86 21.4455 78.9255 21.7101 80.1 21.7101V20.9101ZM83.294 19.9643C82.453 20.587 81.3968 20.9101 80.1 20.9101V21.7101C81.5347 21.7101 82.7665 21.3503 83.77 20.6072L83.294 19.9643ZM85.0634 17.5313C84.7378 18.5213 84.151 19.3297 83.294 19.9643L83.77 20.6072C84.7574 19.8761 85.445 18.9316 85.8233 17.7813L85.0634 17.5313ZM82.8456 18.0563H85.4434V17.2563H82.8456V18.0563ZM80.1 19.6826C80.8038 19.6826 81.4303 19.535 81.9618 19.2202C82.4949 18.9044 82.9073 18.4352 83.2043 17.8334L82.4869 17.4793C82.2489 17.9616 81.9361 18.3056 81.5541 18.5319C81.1703 18.7591 80.6915 18.8826 80.1 18.8826V19.6826ZM77.55 18.7338C78.249 19.3692 79.1076 19.6826 80.1 19.6826V18.8826C79.2901 18.8826 78.6281 18.6327 78.0881 18.1418L77.55 18.7338ZM76.3853 16.2293C76.4625 17.248 76.846 18.0938 77.55 18.7338L78.0881 18.1418C77.553 17.6554 77.2466 17.0087 77.183 16.1688L76.3853 16.2293ZM85.6757 15.7991H76.7842V16.5991H85.6757V15.7991ZM83.6468 14.2497C83.6311 13.2593 83.2716 12.4365 82.5579 11.8202L82.035 12.4256C82.5604 12.8794 82.8345 13.4786 82.8469 14.2624L83.6468 14.2497ZM76.8053 14.656H83.2469V13.856H76.8053V14.656ZM77.5949 11.814C76.9209 12.4157 76.5311 13.2242 76.4084 14.2064L77.2022 14.3056C77.3047 13.4856 77.6189 12.865 78.1277 12.4107L77.5949 11.814ZM79.9944 10.9203C79.0706 10.9203 78.2633 11.2172 77.5949 11.814L78.1277 12.4107C78.642 11.9515 79.2568 11.7203 79.9944 11.7203V10.9203ZM82.5579 11.8202C81.8571 11.2149 80.9935 10.9203 79.9944 10.9203V11.7203C80.8257 11.7203 81.4968 11.9608 82.035 12.4256L82.5579 11.8202Z" fill="white"/>
<defs>
<filter id="filter0_b_0_1292" x="83.287" y="-7.35314" width="23.506" height="23.5063" filterUnits="userSpaceOnUse" color-interpolation-filters="sRGB">
<feFlood flood-opacity="0" result="BackgroundImageFix"/>
<feGaussianBlur in="BackgroundImageFix" stdDeviation="5.43656"/>
<feComposite in2="SourceAlpha" operator="in" result="effect1_backgroundBlur_0_1292"/>
<feBlend mode="normal" in="SourceGraphic" in2="effect1_backgroundBlur_0_1292" result="shape"/>
</filter>
</defs>
</svg>